<svg width="431" height="299" viewBox="0 0 431 299" fill="none" xmlns="http://www.w3.org/2000/svg">
<path d="M305.4 78C303.829 69.7727 295.145 65.5733 291 64.5021C300.949 61.931 305.618 69.8584 306.709 74.1434C317.705 67.973 324.818 72.0009 327 74.7862C318.622 72.2152 309.109 75.8575 305.4 78Z" fill="white"/>
<path d="M70.8 94C69.84 89.2987 64.5333 86.899 62 86.2869C68.08 84.8177 70.9333 89.3477 71.6 91.7963C78.32 88.2703 82.6667 90.572 84 92.1635C78.88 90.6944 73.0667 92.7757 70.8 94Z" fill="white"/>
<path d="M189.48 214.64L175.2 237.84L202.59 270.37H230.21L255.96 237.29L240.02 214.64H189.48Z" fill="#3F4553"/>
<path d="M175.2 237.84C175.2 237.84 113.77 242.59 98.3599 258.68C82.9499 274.77 90.1999 292.24 105.21 292.24C132.84 292.24 191.3 293.93 218.96 292.24L220.61 254.57L175.2 237.84Z" fill="#3F4553"/>
<path d="M254.37 237.04C254.37 237.04 318.7 242.59 334.11 258.68C349.52 274.77 340.64 285.43 327.26 292.24C308.43 301.83 240.56 300.24 205.36 288.59L211.87 254.57L254.37 237.04Z" fill="#3F4553"/>
<path d="M257.2 268.64L252.85 257.4L258.27 254.99C258.27 254.99 257.52 248.34 264.15 247.06C270.78 245.78 278.68 250.06 286.38 246.61C293.48 243.43 302.17 240.5 310.28 244.9C311.48 245.55 312.04 246.98 311.63 248.28L311.6 248.38C311.19 249.69 309.91 250.5 308.54 250.36C305.68 250.07 300.58 250.13 295.54 253.18C286.85 258.46 257.2 268.64 257.2 268.64Z" fill="#FEBBA0"/>
<path d="M307.81 269.28C307.81 269.28 264.88 261.65 174.45 260.47L165.72 272.31C165.72 272.31 188.22 285.17 209.34 289.82C230.46 294.47 303.37 309.11 335.93 286.56L307.81 269.28Z" fill="#3F4553"/>
<path d="M209.34 289.83C187.69 284.83 165.04 272.01 165.04 272.01L166.39 269.72" stroke="#6E758F" stroke-width="1.5925" stroke-miterlimit="10" stroke-linecap="round"/>
<path d="M174.45 260.47C174.45 260.47 273.8 258.2 300.31 273.58" stroke="#6E758F" stroke-width="1.5925" stroke-miterlimit="10" stroke-linecap="round"/>
<path d="M125.68 266.91C125.68 266.91 143.82 258.41 156.22 263.98" stroke="#6E758F" stroke-width="1.5925" stroke-miterlimit="10" stroke-linecap="round"/>
<path d="M167.81 270.35L174.44 260.25L167.81 256.66C167.81 256.66 165.49 250.85 158.99 249.05C152.48 247.26 147.85 250.15 140.44 246.11C133.61 242.38 125.17 238.79 116.75 242.54C115.51 243.09 114.83 244.47 115.14 245.8L115.16 245.9C115.47 247.24 116.68 248.14 118.05 248.11C120.92 248.04 126.01 248.5 130.79 251.94C139.04 257.88 167.81 270.35 167.81 270.35Z" fill="#FEBBA0"/>
<path d="M224.89 260.83L252.05 258.16" stroke="#6E758F" stroke-width="1.5925" stroke-miterlimit="10" stroke-linecap="round"/>
<path d="M190.35 249.06L205.5 260.03" stroke="#6E758F" stroke-width="1.5925" stroke-miterlimit="10" stroke-linecap="round"/>
<path d="M186.44 99.7702C187.08 106.03 192.53 110.59 198.61 109.97C204.69 109.35 209.1 103.77 208.46 97.5202C207.82 91.2602 202.37 86.7002 196.29 87.3202C190.22 87.9302 185.81 93.5102 186.44 99.7702Z" fill="#3F4553"/>
<path d="M209.15 104.32C209.15 104.32 189.83 101.4 186.79 83.1702C184.11 67.0602 194.92 54.1502 206.77 51.9202C206.78 51.9202 235.25 95.8002 209.15 104.32Z" fill="#3F4553"/>
<path d="M209.59 53.6502C208.17 54.3502 206.82 55.2702 205.59 56.4602C194.58 67.0502 201.55 87.6102 211.41 96.8902C216.87 102.02 224.85 104.41 231.82 101.79C242.01 97.9602 245.2 86.4202 243.13 76.1402C241.59 68.4802 237.34 61.2502 231.07 56.7502C224.8 52.2602 216.33 50.3602 209.59 53.6502Z" fill="#FDBCA0"/>
<path d="M207.76 90.6902C205.83 92.6002 202.47 93.3802 199.89 92.4702C197.31 91.5602 195.19 89.1302 194.52 86.3102C193.92 83.7802 194.57 80.9002 196.43 79.3502C198.29 77.8002 201.64 77.9002 203.23 79.9102L207.76 90.6902Z" fill="#FDBCA0"/>
<path d="M204.94 83.9702L206.97 120.31C207.24 127.03 212.69 132.37 219.41 132.5C227.17 132.66 233.26 125.88 232.27 118.18L228.17 84.4402L204.94 83.9702Z" fill="#FDBCA0"/>
<path d="M230.93 107.22L230.42 102.24C230.42 102.24 220.42 105.31 211.41 96.8802C211.41 96.8902 216.6 106.36 230.93 107.22Z" fill="#DF8370"/>
<path d="M200.97 78.4802C213.99 77.8102 225.87 69.0702 232.43 57.8102C232.43 57.8102 220.45 46.4402 202.94 53.0902C188.43 58.5902 200.97 78.4802 200.97 78.4802Z" fill="#3F4553"/>
<path d="M202.4 86.8402C200.9 86.9902 199.59 86.1802 199.47 85.0302C199.38 84.1602 199.99 83.3502 200.93 82.9302" stroke="#444359" stroke-width="1.1144" stroke-miterlimit="10" stroke-linecap="round"/>
<path d="M233.68 84.0002C233.98 83.0902 234.5 82.3702 235.08 81.6902L235.36 82.5702C234.7 82.3202 234.34 81.9402 233.97 81.5702C233.62 81.1802 233.31 80.7902 233.03 80.3702C232.47 79.5402 232 78.6602 231.66 77.7302C232.36 78.4402 233 79.1702 233.67 79.8702C234.01 80.2102 234.33 80.5602 234.68 80.8602C235.01 81.1502 235.4 81.4502 235.67 81.5202L236.48 81.7102L235.95 82.4002C235.41 83.1102 234.81 83.7702 233.98 84.2502C233.88 84.3102 233.76 84.2702 233.7 84.1802C233.67 84.1102 233.67 84.0502 233.68 84.0002Z" fill="#444359"/>
<path d="M236.61 87.1802C236.21 88.0002 235.53 88.7102 234.65 89.1402C233.78 89.5902 232.7 89.6802 231.74 89.4002C230.76 89.1302 230 88.4902 229.35 87.8302C229.06 87.4702 228.77 87.1002 228.53 86.7202C228.32 86.3102 228.1 85.9102 227.94 85.4902C228.31 85.7702 228.63 86.0702 228.95 86.3702L229.94 87.1902C230.64 87.6502 231.3 88.1502 232.06 88.3302C232.79 88.5602 233.57 88.5502 234.34 88.3402C235.1 88.1202 235.86 87.6902 236.61 87.1802Z" fill="#444359"/>
<path d="M226.14 74.1103C226.53 75.2703 226.75 76.4703 226.67 77.7603C226.62 78.3903 226.47 79.0803 226 79.6903C225.52 80.3103 224.71 80.5803 224 80.5603C223.27 80.5503 222.55 80.2303 222.06 79.7803C221.55 79.3303 221.15 78.8103 220.85 78.2603C220.25 77.1503 219.87 75.9903 219.68 74.7703C219.65 74.5803 219.78 74.4003 219.97 74.3603C220.15 74.3303 220.31 74.4403 220.36 74.6003L220.37 74.6203C220.71 75.7003 221.16 76.7903 221.74 77.7303C222.32 78.6403 223.11 79.4803 224.04 79.4503C224.5 79.4703 224.93 79.3503 225.19 79.0203C225.48 78.7003 225.62 78.1803 225.7 77.6503C225.85 76.5803 225.75 75.4003 225.57 74.2703V74.2503C225.54 74.0903 225.66 73.9303 225.82 73.9103C225.95 73.8903 226.09 73.9803 226.14 74.1103Z" fill="#444359"/>
<path d="M240.66 71.8402C240.99 72.8202 241.17 73.8202 241.15 74.8902C241.14 75.4202 241.04 76.0002 240.7 76.5502C240.37 77.1302 239.63 77.4902 238.99 77.4602C238.32 77.4502 237.71 77.1002 237.32 76.6902C236.92 76.2702 236.61 75.8202 236.38 75.3402C235.93 74.3802 235.65 73.4002 235.51 72.3702C235.48 72.1802 235.62 72.0002 235.82 71.9702C235.99 71.9502 236.15 72.0502 236.2 72.2102L236.21 72.2302C236.5 73.1302 236.85 74.0502 237.3 74.8502C237.75 75.6302 238.36 76.3802 239.03 76.3402C239.37 76.3502 239.64 76.2502 239.82 75.9702C240.02 75.6902 240.12 75.2602 240.18 74.8102C240.28 73.9102 240.2 72.9202 240.09 71.9802V71.9602C240.07 71.8002 240.19 71.6502 240.35 71.6202C240.48 71.6202 240.62 71.7102 240.66 71.8402Z" fill="#444359"/>
<path d="M251.46 123.61C251.37 117.51 231.59 112.63 231.59 112.63C230.35 114 228.22 116.31 219.25 116.31C210.67 116.31 207.24 114.09 205.9 112.63H197.41C195.52 112.63 193.79 113.71 193 115.43C175.99 152.64 185.55 194.2 189.47 214.63C189.83 216.51 225.33 215.24 241.34 216.51C244.8 216.8 251.8 145.78 251.46 123.61Z" fill="#FEE6C6"/>
<path d="M210.15 176.23C211.91 162.01 214.06 153.48 215.71 156.28C217.17 158.76 216.36 171.2 214.17 183.2C214.18 183.2 209.4 182.32 210.15 176.23Z" fill="#FEBBA0"/>
<path d="M221.77 176.23C220.01 162.01 217.86 153.48 216.21 156.28C214.75 158.76 215.56 171.2 217.75 183.2C217.74 183.2 222.52 182.32 221.77 176.23Z" fill="#FEBBA0"/>
<path d="M280.39 172.7H258.04L261.59 195.4L221.03 175.61C220.89 174.09 220.7 172.21 220.47 170.22C218.94 170.22 217.4 170.22 215.87 170.2C215.88 171.93 215.91 173.1 215.91 173.1C215.91 173.1 215.12 183.54 216.93 187.02C220.37 193.64 255.56 214.96 265.33 217.49C265.94 217.65 266.55 217.77 267.16 217.85C276.59 219.18 282.84 213.89 282.77 204.37L280.39 172.7Z" fill="#FEBBA0"/>
<path d="M211.05 170.12C210.7 172.36 210.39 174.52 210.15 176.23L170.76 194.47L172.42 172.71H150.07L147.7 204.4C147.64 213.92 153.89 219.2 163.31 217.88C163.92 217.79 164.53 217.67 165.14 217.52C174.91 214.99 207.64 197.3 214.63 186.98C216.7 183.93 215.72 173.66 215.72 173.66C215.72 173.66 215.72 172.24 215.68 170.22C214.14 170.19 212.6 170.16 211.05 170.12Z" fill="#FEBBA0"/>
<path d="M178.14 185.12C186.88 159.27 186.81 159.25 197.54 112.64C190.36 113.13 189.62 111.96 183.96 114.9C166.98 123.72 150.99 152.69 146.28 185.12H178.14Z" fill="#FEE6C6"/>
<path d="M255.96 182.57C250.82 164.26 231.59 112.64 231.59 112.64C250.82 111.99 277.06 137.06 283.34 179.22L255.96 182.57Z" fill="#FEE6C6"/>
<path d="M251.47 142.14L247.42 175.42" stroke="#EED2AD" stroke-width="1.5925" stroke-miterlimit="10" stroke-linecap="round"/>
<path d="M181.82 147.6L185.04 183.2" stroke="#EED2AD" stroke-width="1.5925" stroke-miterlimit="10" stroke-linecap="round"/>
<path d="M354.248 115.025C306.249 101.525 313.248 142.025 323.248 142.025C327.357 142.025 335.873 143.025 346.249 143.025H377.749C417.748 143.025 429.249 140.358 429.749 139.525C433.249 113.025 412.082 115.525 400.749 118.525C402.582 108.692 400.649 88.8252 378.248 88.0252C355.848 87.2252 352.915 105.692 354.248 115.025Z" fill="#FBFBFF"/>
<path d="M16.7557 39.7874C-4.27172 33.8992 -1.20541 51.5638 3.1753 51.5638C4.9751 51.5638 8.70587 52 13.2514 52H27.0509C44.5738 52 49.6117 50.8369 49.831 50.4734C51.3643 38.9151 42.0916 40.0055 37.1267 41.314C37.9299 37.025 37.0828 28.3599 27.2696 28.011C17.4564 27.662 16.1715 35.7165 16.7557 39.7874Z" fill="white"/>
<circle cx="48" cy="17" r="6" fill="white"/>
<circle r="3" transform="matrix(1 0 0 -1 39 3)" fill="white"/>
</svg>
